Coordinates
version=1
nRows=9
nColumns=63
inDegrees=yes

Units are S.I. units (second, meters, Newtons, ...)
If the header above contains a line with 'inDegrees', this indicates whether rotational values are in degrees (yes) or radians (no).

endheader
time	pelvis_tilt	pelvis_list	pelvis_rotation	pelvis_tx	pelvis_ty	pelvis_tz	hip_flexion_r	hip_adduction_r	hip_rotation_r	knee_angle_r	knee_angle_r_beta	ankle_angle_r	subtalar_angle_r	mtp_angle_r	hip_flexion_l	hip_adduction_l	hip_rotation_l	knee_angle_l	knee_angle_l_beta	ankle_angle_l	subtalar_angle_l	mtp_angle_l	L5_S1_Flex_Ext	L5_S1_Lat_Bending	L5_S1_axial_rotation	L4_L5_Flex_Ext	L4_L5_Lat_Bending	L4_L5_axial_rotation	L3_L4_Flex_Ext	L3_L4_Lat_Bending	L3_L4_axial_rotation	L2_L3_Flex_Ext	L2_L3_Lat_Bending	L2_L3_axial_rotation	L1_L2_Flex_Ext	L1_L2_Lat_Bending	L1_L2_axial_rotation	L1_T12_Flex_Ext	L1_T12_Lat_Bending	L1_T12_axial_rotation	Abs_r3	Abs_r2	Abs_r1	Abs_t1	Abs_t2	neck_flexion	neck_bending	neck_rotation	arm_flex_r	arm_add_r	arm_rot_r	elbow_flex_r	pro_sup_r	wrist_flex_r	wrist_dev_r	arm_flex_l	arm_add_l	arm_rot_l	elbow_flex_l	pro_sup_l	wrist_flex_l	wrist_dev_l
      0.03333333	      5.38228085	     -2.33314801	    173.67473918	      2.46571268	      0.88792102	      0.58219095	     18.07569402	     -2.10478218	     -3.23120604	     26.62982904	      0.46477820	     19.52007057	     -6.40387585	      0.00000000	     10.83664084	      2.51207632	     -9.23649317	     16.11432688	      0.28124806	     15.24762249	    -18.62640246	      0.00000000	     -0.00229949	     -0.37131279	     -0.33172400	     -0.00427038	     -0.49384601	     -0.35245675	     -0.00377783	     -0.90280992	     -0.35245675	     -0.00262808	     -0.90280992	     -0.29025850	     -0.00213530	     -0.75718104	     -0.26952575	     -0.00131393	     -0.57516351	     -0.24879300	     -0.01642501	     -4.20036456	     -1.84494938	      0.00000000	      0.00000000	     -0.00000000	      0.00000000	      0.00000000	      4.51728294	    -12.76375784	     70.44912488	     21.04266785	     32.16751790	      0.00000000	      5.42276087	     -8.59035639	     -9.07363572	     16.75606899	     19.41706503	     46.23890428	      0.00000000	      5.42276087
      0.06666667	      5.41070290	     -1.95213360	    173.97341179	      2.46456237	      0.88860512	      0.58240147	     17.72677906	     -1.84288352	     -4.55876243	     26.54640238	      0.46332213	     21.61313302	     -2.45291181	      0.00000000	     10.70017470	      2.47538438	     -6.49970039	     15.76836402	      0.27520987	     14.86658944	    -18.54329957	      0.00000000	     -0.00091507	     -0.32875121	     -0.47401311	     -0.00169938	     -0.43723910	     -0.50363893	     -0.00150337	     -0.79932568	     -0.50363893	     -0.00104584	     -0.79932568	     -0.41476147	     -0.00084974	     -0.67038946	     -0.38513565	     -0.00052287	     -0.50923562	     -0.35550983	     -0.00653627	     -3.71889939	     -2.63631871	      0.00000000	      0.00000000	     -0.00000000	      0.00000000	      0.00000000	      0.92708456	    -10.17437688	     48.03204737	     20.22380097	     26.13499141	      0.00000000	      5.24025859	     -9.82963974	     -8.66537937	     14.20506129	     20.78631502	     46.83566912	      0.00000000	      5.24025859
      0.10000000	      5.39661471	     -1.60264564	    174.39286835	      2.46338888	      0.88903348	      0.58272884	     17.30546859	     -1.72699446	     -6.19475428	     26.36466162	      0.46015015	     23.26305021	      1.17617344	      0.00000000	     10.56554856	      2.44172758	     -3.89105993	     15.53759550	      0.27118220	     14.71587265	    -18.52292315	      0.00000000	      0.00166834	     -0.28281269	     -0.59372583	      0.00309828	     -0.37614087	     -0.63083370	      0.00274092	     -0.68763077	     -0.63083370	      0.00190675	     -0.68763077	     -0.51951010	      0.00154922	     -0.57671163	     -0.48240224	      0.00095329	     -0.43807685	     -0.44529437	      0.01191680	     -3.19923369	     -3.30212495	      0.00000000	      0.00000000	      0.00000000	      0.00000000	      0.00000000	     -2.59277828	     -6.78108804	     19.47993442	     22.00014315	     38.30897684	      0.00000000	      4.98632017	    -10.69635462	     -8.48692714	     12.42285377	     21.91565759	     54.63683932	      0.00000000	      4.98632017
      0.13333333	      5.33787859	     -1.49903532	    174.82104971	      2.46275388	      0.88937153	      0.58310719	     17.01158736	     -1.88392952	     -7.48285094	     26.29331746	      0.45890496	     24.39082810	      4.00759123	      0.00000000	     10.46352773	      2.58113102	     -2.23616848	     15.28886626	      0.26684106	     14.69013519	    -18.58435110	      0.00000000	      0.00021937	     -0.25975613	     -0.67600907	      0.00040740	     -0.34547566	     -0.71825964	      0.00036041	     -0.63157107	     -0.71825964	      0.00025072	     -0.63157107	     -0.59150794	      0.00020371	     -0.52969471	     -0.54925737	      0.00012535	     -0.40236225	     -0.50700681	      0.00156695	     -2.93841334	     -3.75975967	      0.00000000	      0.00000000	      0.00000000	      0.00000000	      0.00000000	     -4.19161070	     -4.53696916	      6.42186533	     23.83512497	     35.41671731	      0.00000000	      4.98891613	    -11.08665561	     -8.32728938	     11.94383108	     22.30930086	     54.96246518	      0.00000000	      4.98891613
      0.16666667	      5.14651136	     -1.75679044	    174.71610723	      2.46232519	      0.88980643	      0.58263398	     16.79208486	     -1.96038244	     -6.75709003	     26.24619764	      0.45808257	     24.75468169	      4.11747417	      0.00000000	     10.09028294	      2.91689233	     -2.06753191	     14.69191788	      0.25642234	     14.84007571	    -18.51302730	      0.00000000	     -0.00218747	     -0.27747102	     -0.59887212	     -0.00406235	     -0.36903646	     -0.63630163	     -0.00359380	     -0.67464305	     -0.63630163	     -0.00250006	     -0.67464305	     -0.52401310	     -0.00203129	     -0.56581891	     -0.48658360	     -0.00124992	     -0.42980262	     -0.44915409	     -0.01562488	     -3.13880771	     -3.33074706	      0.00000000	      0.00000000	      0.00000000	      0.00000000	      0.00000000	     -5.07191486	     -3.02654026	     -0.93527182	     25.00872177	     34.52005472	      0.00000000	      4.99072400	    -10.87751732	     -8.65964179	     13.61181428	     22.20622924	     55.90364298	      0.00000000	      4.99072400
      0.20000000	      5.08227599	     -1.86227234	    174.93971281	      2.46248295	      0.89010149	      0.58281607	     16.72567709	     -2.04734949	     -6.68891449	     26.23463253	      0.45788072	     24.77056860	      4.14918033	      0.00000000	     10.14503052	      3.07824485	     -2.07110654	     14.59610223	      0.25475004	     15.11440034	    -18.58466619	      0.00000000	      0.00043357	     -0.27660460	     -0.57325533	      0.00080517	     -0.36788412	     -0.60908379	      0.00071230	     -0.67253644	     -0.60908379	      0.00049552	     -0.67253644	     -0.50159841	      0.00040261	     -0.56405211	     -0.46576996	      0.00024774	     -0.42846053	     -0.42994150	      0.00309691	     -3.12900661	     -3.18827417	      0.00000000	      0.00000000	      0.00000000	      0.00000000	      0.00000000	     -5.22103672	     -3.00465071	     -0.96624648	     24.96811099	     34.52108579	      0.00000000	      4.99074008	    -10.64670576	     -8.65073843	     13.62266910	     22.23502459	     55.91247596	      0.00000000	      4.99074008
      0.23333333	      4.91800483	     -2.33053229	    174.63605567	      2.46231712	      0.89031250	      0.58246288	     16.71919974	     -2.42348500	     -6.30517417	     26.42989643	      0.46128871	     24.91699512	      4.08212836	      0.00000000	      9.73188146	      3.56761141	     -2.21263768	     13.86645445	      0.24201529	     15.65920394	    -18.57562816	      0.00000000	      0.00105949	     -0.32221750	     -0.45180847	      0.00196759	     -0.42854927	     -0.48004650	      0.00174064	     -0.78343962	     -0.48004650	      0.00121090	     -0.78343962	     -0.39533241	      0.00098385	     -0.65706592	     -0.36709438	      0.00060540	     -0.49911490	     -0.33885635	      0.00756787	     -3.64498877	     -2.51282317	      0.00000000	      0.00000000	      0.00000000	      0.00000000	      0.00000000	     -5.44121060	     -2.74617973	     -2.04426229	     25.12277487	     35.23046466	      0.00000000	      4.99226488	    -10.13870327	     -8.75838134	     14.31585386	     21.42487363	     55.48155300	      0.00000000	      4.99226488
      0.26666667	      4.86305334	     -2.50552891	    174.47381249	      2.46231704	      0.89031483	      0.58232367	     16.77618000	     -2.66190108	     -6.69502225	     26.62570261	      0.46470618	     24.96155906	      4.62973924	      0.00000000	      9.65419939	      3.70838735	     -2.19737648	     13.71093959	      0.23930104	     16.12089370	    -18.61887063	      0.00000000	     -0.00014391	     -0.33875297	     -0.38411596	     -0.00026726	     -0.45054145	     -0.40812321	     -0.00023643	     -0.82364397	     -0.40812321	     -0.00016447	     -0.82364397	     -0.33610146	     -0.00013364	     -0.69078506	     -0.31209422	     -0.00008223	     -0.52472835	     -0.28808697	     -0.00102794	     -3.83204135	     -2.13633773	      0.00000000	      0.00000000	      0.00000000	      0.00000000	      0.00000000	     -5.56663196	     -2.29619708	     -4.71509167	     25.26225865	     37.35889639	      0.00000000	      4.99604883	     -9.26943216	     -9.80717447	     21.04281020	     20.91885615	     57.63326089	      0.00000000	      4.99604883
      0.30000000	      4.91500613	     -2.42466263	    174.35299392	      2.46204251	      0.89001131	      0.58240524	     16.87711372	     -2.57277807	     -6.78957202	     26.77141023	      0.46724925	     24.84265201	      4.54526522	      0.00000000	      9.61743563	      3.59316034	     -1.87288575	     13.63623975	      0.23799728	     16.52250881	    -18.67871032	      0.00000000	      0.00007547	     -0.33851787	     -0.39487132	      0.00014016	     -0.45022876	     -0.41955078	      0.00012399	     -0.82307234	     -0.41955078	      0.00008626	     -0.82307234	     -0.34551241	      0.00007008	     -0.69030564	     -0.32083295	      0.00004312	     -0.52436418	     -0.29615349	      0.00053909	     -3.82938183	     -2.19615584	      0.00000000	      0.00000000	      0.00000000	      0.00000000	      0.00000000	     -5.45161114	     -2.44246476	     -4.22497954	     25.19698095	     36.87031982	      0.00000000	      4.99608586	     -9.43351182	     -9.66918677	     19.89316676	     21.02366991	     58.31332595	      0.00000000	      4.99608586
